<svg width="0" height="0" class="hidden">
  <symbol xmlns="http://www.w3.org/2000/svg" viewBox="0 0 24 24" id="like">
    <path d="M4.45067 13.9082L11.4033 20.4395C11.6428 20.6644 11.7625 20.7769 11.9037 20.8046C11.9673 20.8171 12.0327 20.8171 12.0963 20.8046C12.2375 20.7769 12.3572 20.6644 12.5967 20.4395L19.5493 13.9082C21.5055 12.0706 21.743 9.0466 20.0978 6.92607L19.7885 6.52734C17.8203 3.99058 13.8696 4.41601 12.4867 7.31365C12.2913 7.72296 11.7087 7.72296 11.5133 7.31365C10.1304 4.41601 6.17972 3.99058 4.21154 6.52735L3.90219 6.92607C2.25695 9.0466 2.4945 12.0706 4.45067 13.9082Z" stroke-width="2"></path>
  </symbol>
  <symbol xmlns="http://www.w3.org/2000/svg" viewBox="0 0 24 24" id="view">
    <path fill-rule="evenodd" clip-rule="evenodd" d="M12 14C13.1046 14 14 13.1046 14 12C14 10.8954 13.1046 10 12 10C10.8954 10 10 10.8954 10 12C10 13.1046 10.8954 14 12 14ZM12 16C14.2091 16 16 14.2091 16 12C16 9.79086 14.2091 8 12 8C9.79086 8 8 9.79086 8 12C8 14.2091 9.79086 16 12 16Z" />
    <path fill-rule="evenodd" clip-rule="evenodd" d="M7.65914 8.63233C6.34002 9.58138 5.26409 10.7442 4.58387 11.57C4.48409 11.6912 4.40958 11.7818 4.34785 11.8615C4.29899 11.9246 4.26786 11.9685 4.24756 12C4.26786 12.0315 4.29899 12.0754 4.34785 12.1385C4.40958 12.2182 4.48409 12.3088 4.58386 12.43C5.26409 13.2558 6.34002 14.4186 7.65914 15.3677C8.98616 16.3224 10.4742 17 12 17C13.5258 17 15.0139 16.3224 16.3409 15.3677C17.66 14.4186 18.7359 13.2558 19.4162 12.43C19.5159 12.3088 19.5904 12.2182 19.6522 12.1385C19.701 12.0754 19.7322 12.0315 19.7525 12C19.7322 11.9685 19.701 11.9246 19.6522 11.8615C19.5904 11.7818 19.5159 11.6912 19.4162 11.57C18.7359 10.7442 17.66 9.58138 16.3409 8.63233C15.0139 7.6776 13.5258 7 12 7C10.4742 7 8.98616 7.6776 7.65914 8.63233ZM6.49112 7.00884C7.99416 5.92747 9.89008 5 12 5C14.1099 5 16.0059 5.92747 17.5089 7.00885C19.0198 8.0959 20.2201 9.40025 20.9599 10.2985C20.9835 10.3272 21.0081 10.3566 21.0334 10.3869C21.3468 10.7624 21.7703 11.2696 21.7703 12C21.7703 12.7304 21.3468 13.2376 21.0334 13.6131C21.0081 13.6434 20.9835 13.6728 20.9599 13.7015C20.2201 14.5998 19.0198 15.9041 17.5089 16.9912C16.0059 18.0725 14.1099 19 12 19C9.89008 19 7.99416 18.0725 6.49111 16.9912C4.98018 15.9041 3.77996 14.5998 3.04009 13.7015C3.0165 13.6728 2.99191 13.6434 2.9666 13.6131C2.65318 13.2376 2.22974 12.7304 2.22974 12C2.22974 11.2696 2.65318 10.7624 2.96661 10.3869C2.99191 10.3566 3.0165 10.3272 3.04009 10.2985C3.77996 9.40024 4.98018 8.0959 6.49112 7.00884Z"/>
  </symbol>
  <symbol xmlns="http://www.w3.org/2000/svg" viewBox="0 0 24 24" id="download">
    <path fill-rule="evenodd" clip-rule="evenodd" d="M7.08642 13.0691L5.384 11.7071C5.13517 12.4254 5 13.1967 5 13.9995C5 17.8655 8.13401 20.9995 12 20.9995C15.866 20.9995 19 17.8655 19 13.9995C19 13.1967 18.8648 12.4254 18.616 11.7071L16.9136 13.0691C16.9703 13.3706 17 13.6816 17 13.9995C17 16.761 14.7614 18.9995 12 18.9995C9.23858 18.9995 7 16.761 7 13.9995C7 13.6816 7.02968 13.3705 7.08642 13.0691Z"></path>
    <path d="M12 13L11.3753 13.7809L12 14.2806L12.6247 13.7809L12 13ZM13 4C13 3.44772 12.5523 3 12 3C11.4477 3 11 3.44772 11 4L13 4ZM6.37531 9.78087L11.3753 13.7809L12.6247 12.2191L7.6247 8.21913L6.37531 9.78087ZM12.6247 13.7809L17.6247 9.78087L16.3753 8.21913L11.3753 12.2191L12.6247 13.7809ZM13 13L13 4L11 4L11 13L13 13Z"></path>
  </symbol>
  <symbol xmlns="http://www.w3.org/2000/svg" viewBox="0 0 24 24" id="comment">
    <path d="M19.3259 5.77772L18.4944 6.33329L18.4944 6.33329L19.3259 5.77772ZM19.3259 16.2223L18.4944 15.6667L18.4944 15.6667L19.3259 16.2223ZM18.2223 17.3259L17.6667 16.4944L17.6667 16.4944L18.2223 17.3259ZM14 17.9986L13.9956 16.9986C13.4451 17.001 13 17.4481 13 17.9986H14ZM14 18L14.8944 18.4472C14.9639 18.3084 15 18.1552 15 18H14ZM10 18H9C9 18.1552 9.03615 18.3084 9.10557 18.4472L10 18ZM10 17.9986H11C11 17.4481 10.5549 17.001 10.0044 16.9986L10 17.9986ZM5.77772 17.3259L6.33329 16.4944L6.33329 16.4944L5.77772 17.3259ZM4.67412 16.2223L5.50559 15.6667L5.50559 15.6667L4.67412 16.2223ZM4.67412 5.77772L5.50559 6.33329L5.50559 6.33329L4.67412 5.77772ZM5.77772 4.67412L6.33329 5.50559L6.33329 5.50559L5.77772 4.67412ZM18.2223 4.67412L17.6667 5.50559L17.6667 5.50559L18.2223 4.67412ZM21 11C21 9.61635 21.0012 8.50334 20.9106 7.61264C20.8183 6.70523 20.6225 5.91829 20.1573 5.22215L18.4944 6.33329C18.7034 6.64604 18.8446 7.06578 18.9209 7.81505C18.9988 8.58104 19 9.57473 19 11H21ZM20.1573 16.7779C20.6225 16.0817 20.8183 15.2948 20.9106 14.3874C21.0012 13.4967 21 12.3836 21 11H19C19 12.4253 18.9988 13.419 18.9209 14.1849C18.8446 14.9342 18.7034 15.354 18.4944 15.6667L20.1573 16.7779ZM18.7779 18.1573C19.3238 17.7926 19.7926 17.3238 20.1573 16.7779L18.4944 15.6667C18.2755 15.9943 17.9943 16.2755 17.6667 16.4944L18.7779 18.1573ZM14.0044 18.9986C15.0785 18.9939 15.9763 18.9739 16.7267 18.8701C17.4931 18.7642 18.1699 18.5636 18.7779 18.1573L17.6667 16.4944C17.3934 16.6771 17.0378 16.8081 16.4528 16.889C15.8518 16.9721 15.0792 16.9939 13.9956 16.9986L14.0044 18.9986ZM15 18V17.9986H13V18H15ZM13.7889 20.6584L14.8944 18.4472L13.1056 17.5528L12 19.7639L13.7889 20.6584ZM10.2111 20.6584C10.9482 22.1325 13.0518 22.1325 13.7889 20.6584L12 19.7639L12 19.7639L10.2111 20.6584ZM9.10557 18.4472L10.2111 20.6584L12 19.7639L10.8944 17.5528L9.10557 18.4472ZM9 17.9986V18H11V17.9986H9ZM5.22215 18.1573C5.83014 18.5636 6.50685 18.7642 7.2733 18.8701C8.02368 18.9739 8.92154 18.9939 9.99564 18.9986L10.0044 16.9986C8.92075 16.9939 8.14815 16.9721 7.54716 16.889C6.96223 16.8081 6.60665 16.6771 6.33329 16.4944L5.22215 18.1573ZM3.84265 16.7779C4.20744 17.3238 4.6762 17.7926 5.22215 18.1573L6.33329 16.4944C6.00572 16.2755 5.72447 15.9943 5.50559 15.6667L3.84265 16.7779ZM3 11C3 12.3836 2.99879 13.4967 3.0894 14.3874C3.18171 15.2948 3.3775 16.0817 3.84265 16.7779L5.50559 15.6667C5.29662 15.354 5.15535 14.9342 5.07913 14.1849C5.00121 13.419 5 12.4253 5 11H3ZM3.84265 5.22215C3.3775 5.91829 3.18171 6.70523 3.0894 7.61264C2.99879 8.50334 3 9.61635 3 11H5C5 9.57473 5.00121 8.58104 5.07913 7.81505C5.15535 7.06578 5.29662 6.64604 5.50559 6.33329L3.84265 5.22215ZM5.22215 3.84265C4.6762 4.20744 4.20744 4.6762 3.84265 5.22215L5.50559 6.33329C5.72447 6.00572 6.00572 5.72447 6.33329 5.50559L5.22215 3.84265ZM11 3C9.61635 3 8.50334 2.99879 7.61264 3.0894C6.70523 3.18171 5.91829 3.3775 5.22215 3.84265L6.33329 5.50559C6.64604 5.29662 7.06578 5.15535 7.81505 5.07913C8.58104 5.00121 9.57473 5 11 5V3ZM13 3H11V5H13V3ZM18.7779 3.84265C18.0817 3.3775 17.2948 3.18171 16.3874 3.0894C15.4967 2.99879 14.3836 3 13 3V5C14.4253 5 15.419 5.00121 16.1849 5.07913C16.9342 5.15535 17.354 5.29662 17.6667 5.50559L18.7779 3.84265ZM20.1573 5.22215C19.7926 4.6762 19.3238 4.20744 18.7779 3.84265L17.6667 5.50559C17.9943 5.72447 18.2755 6.00572 18.4944 6.33329L20.1573 5.22215Z"></path>
    <circle cx="16" cy="11" r="1" stroke-linecap="round"></circle>
    <circle cx="12" cy="11" r="1" stroke-linecap="round"></circle>
    <circle cx="8" cy="11" r="1" stroke-linecap="round"></circle>
  </symbol>
</svg>
