<svg width="17" height="17" viewBox="0 0 17 17" fill="none" xmlns="http://www.w3.org/2000/svg">
<path fill-rule="evenodd" clip-rule="evenodd" d="M7.27164 1.85127C5.9986 1.85225 4.7781 2.3589 3.87862 3.25977C2.97914 4.16064 2.47437 5.38193 2.47535 6.65497C2.47584 7.28532 2.60048 7.90939 2.84215 8.49157C3.08382 9.07375 3.4378 9.60262 3.88386 10.048C4.32993 10.4934 4.85935 10.8465 5.4419 11.0873C6.02445 11.3281 6.64871 11.4517 7.27906 11.4513C7.9094 11.4508 8.53348 11.3261 9.11566 11.0845C9.69783 10.8428 10.2267 10.4888 10.6721 10.0428C11.1175 9.59669 11.4706 9.06727 11.7114 8.48472C11.9522 7.90217 12.0758 7.2779 12.0753 6.64756C12.0744 5.37452 11.5677 4.15401 10.6668 3.25453C9.76597 2.35505 8.54468 1.85028 7.27164 1.85127ZM2.74637 2.12928C3.94568 0.928118 5.57302 0.252577 7.27041 0.251266C8.96779 0.249955 10.5962 0.922981 11.7973 2.12229C12.9985 3.32159 13.674 4.94893 13.6753 6.64632C13.676 7.48678 13.5111 8.31914 13.1901 9.09587C12.9714 9.62491 12.6832 10.1211 12.3341 10.5717L16.6474 14.8783C16.9601 15.1905 16.9604 15.697 16.6483 16.0097C16.3361 16.3224 15.8296 16.3228 15.5169 16.0106L11.2036 11.7039C10.7535 12.0538 10.2578 12.3427 9.72909 12.5622C8.95286 12.8844 8.12075 13.0506 7.28029 13.0513C6.43984 13.0519 5.60748 12.887 4.83075 12.566C4.05401 12.245 3.34812 11.7741 2.75336 11.1802C2.15861 10.5864 1.68665 9.88124 1.36442 9.10501C1.04219 8.32877 0.876002 7.49667 0.875352 6.65621C0.874041 4.95882 1.54707 3.33044 2.74637 2.12928Z" fill="#1C3144"/>
</svg>
